<svg width="80" height="80" viewBox="0 0 80 80" fill="none" xmlns="http://www.w3.org/2000/svg">
<path d="M39.9667 1.29566e-05C31.8723 0.00700237 23.9705 2.47245 17.3052 7.07066C10.6399 11.6689 5.52466 18.1835 2.6353 25.7538C-0.25406 33.3241 -0.781589 41.594 1.1224 49.4708C3.02639 57.3477 7.27231 64.4609 13.2992 69.8707L13.8826 70.3713L14.1993 70.6049C14.9159 71.2224 15.6493 71.8064 16.416 72.3571L17.0327 72.8077C17.8327 73.3751 18.6994 73.9091 19.5161 74.4764L19.9328 74.7267C20.8661 75.2774 21.8161 75.7781 22.7828 76.2453C24.8858 77.2417 27.072 78.0513 29.3164 78.665H29.433C30.4997 78.9654 31.5831 79.2157 32.7665 79.4159H33.0665C34.1332 79.5995 35.1999 79.7497 36.2999 79.8498H36.6666C37.7666 79.9499 38.8833 80 40 80C41.1167 80 42.2334 80 43.3334 79.8498H43.7001C44.8001 79.7497 45.8668 79.5995 46.9335 79.4159H47.2335C48.3336 79.2157 49.4336 78.9654 50.567 78.665H50.6836C52.928 78.0513 55.1142 77.2417 57.2172 76.2453C58.1839 75.7781 59.1339 75.2607 60.0673 74.7267L60.4839 74.4764C61.334 73.9758 62.1506 73.4251 62.9673 72.8077L63.584 72.3571C64.3507 71.8064 65.0841 71.2224 65.8008 70.6049L66.1174 70.3713L66.7008 69.8707C72.7319 64.4571 76.9795 57.3378 78.8815 49.4546C80.7836 41.5714 80.2505 33.2959 77.3528 25.7226C74.4551 18.1494 69.3293 11.6354 62.6536 7.04228C55.9779 2.4492 48.0667 -0.00650884 39.9667 1.29566e-05ZM39.9667 40.0501C37.3295 40.0501 34.7516 39.2671 32.5588 37.8002C30.3661 36.3333 28.6571 34.2483 27.6479 31.8089C26.6387 29.3695 26.3747 26.6852 26.8892 24.0956C27.4036 21.5059 28.6735 19.1272 30.5383 17.2602C32.4031 15.3931 34.7789 14.1217 37.3654 13.6065C39.9519 13.0914 42.6328 13.3558 45.0693 14.3662C47.5057 15.3767 49.5881 17.0878 51.0532 19.2832C52.5184 21.4786 53.3004 24.0597 53.3004 26.7001C53.3004 30.2407 51.8956 33.6363 49.395 36.1399C46.8945 38.6436 43.503 40.0501 39.9667 40.0501ZM44.9668 43.3876C49.8293 43.3876 54.4925 45.3215 57.9308 48.764C61.3691 52.2065 63.3007 56.8755 63.3007 61.7439V68.4189L63.084 68.5857C62.434 69.1197 61.7506 69.637 61.0673 70.121L60.6006 70.438C59.8672 70.9554 59.1006 71.4226 58.3172 71.8732L57.8839 72.1235C57.0672 72.5907 56.2171 73.0246 55.4004 73.4084L55.1338 73.4251C52.3557 74.6808 49.4335 75.5888 46.4335 76.1285H46.1502C45.2168 76.2954 44.2501 76.4122 43.3001 76.5123H42.9001C41.9167 76.5123 40.95 76.6458 39.9667 76.6458C38.9833 76.6458 38.0166 76.6458 37.0332 76.5123H36.6332C35.6832 76.5123 34.7165 76.3121 33.7832 76.1452H33.4998C30.502 75.6098 27.5842 74.6958 24.8162 73.4251H24.5329C23.6995 73.0246 22.8662 72.6074 22.0495 72.1402L21.6328 71.7564C20.8494 71.3058 20.0828 70.8385 19.3494 70.3212L18.8661 70.0876C18.1827 69.587 17.4994 69.0864 16.8493 68.5524L16.6327 68.4189V61.7439C16.6327 56.8755 18.5643 52.2065 22.0025 48.764C25.4408 45.3215 30.1041 43.3876 34.9665 43.3876H44.9668ZM66.6341 65.2149V61.7439C66.6367 56.7474 64.9166 51.9033 61.7645 48.0298C58.6124 44.1563 54.2215 41.4909 49.3336 40.4839C52.2821 38.4782 54.5106 35.5788 55.6919 32.2115C56.8733 28.8442 56.9452 25.1864 55.8973 21.7751C54.8493 18.3638 52.7366 15.3788 49.8693 13.2583C47.002 11.1378 43.5313 9.99355 39.9667 9.99355C36.402 9.99355 32.9313 11.1378 30.064 13.2583C27.1968 15.3788 25.0841 18.3638 24.0361 21.7751C22.9881 25.1864 23.0601 28.8442 24.2414 32.2115C25.4228 35.5788 27.6513 38.4782 30.5997 40.4839C25.7118 41.4909 21.3209 44.1563 18.1688 48.0298C15.0167 51.9033 13.2966 56.7474 13.2992 61.7439V65.2149C8.38371 59.9999 5.10112 53.4578 3.85671 46.3963C2.61229 39.3348 3.46053 32.063 6.2967 25.4786C9.13288 18.8943 13.8328 13.2856 19.8163 9.3451C25.7998 5.40458 32.8048 3.3047 39.9667 3.3047C47.1285 3.3047 54.1336 5.40458 60.117 9.3451C66.1005 13.2856 70.8005 18.8943 73.6366 25.4786C76.4728 32.063 77.321 39.3348 76.0766 46.3963C74.8322 53.4578 71.5496 59.9999 66.6341 65.2149Z" fill="#163152"/>
</svg>
